 0
SECTION
 2
ENTITIES
  0
POLYLINE
 8
Rigid_surface
 66
     1
10
0.0
 20
 0.0
 30
0.0
70
    64
71
4
72
   1
  0
VERTEX
  8
Rigid_surface
10
0.9333912390713347
20
6.222299999999647
30
0.0
 70
     192
  0
VERTEX
  8
Rigid_surface
10
5.3999999999999275
20
0.0
30
0.0
 70
     192
  0
VERTEX
  8
Rigid_surface
10
0.0
20
0.0
30
0.0
 70
     192
  0
VERTEX
  8
Rigid_surface
10
4.930299999999923
20
6.222299999999647
30
0.0
 70
     192
  0
VERTEX
  8
Rigid_surface
10
0.0
 20
 0.0
 30
0.0
 70
     128
 71
-1
 72
2
 73
3
  0
VERTEX
  8
Rigid_surface
10
0.0
 20
 0.0
 30
0.0
 70
     128
 71
-2
 72
1
 73
4
  0
SEQEND
  0
POINT
 8
Layer0
10
0.9333912390713347
20
6.222299999999647
30
0.0
  0
POLYLINE
 8
Rigid_surface
 66
     1
10
0.0
 20
 0.0
 30
0.0
70
    64
71
4
72
   1
  0
VERTEX
  8
Rigid_surface
10
5.3999999999999275
20
0.0
30
3.6999999999999975
 70
     192
  0
VERTEX
  8
Rigid_surface
10
0.0
20
0.0
30
0.0
 70
     192
  0
VERTEX
  8
Rigid_surface
10
5.3999999999999275
20
0.0
30
0.0
 70
     192
  0
VERTEX
  8
Rigid_surface
10
0.0
20
0.0
30
3.6999999999999975
 70
     192
  0
VERTEX
  8
Rigid_surface
10
0.0
 20
 0.0
 30
0.0
 70
     128
 71
-1
 72
2
 73
3
  0
VERTEX
  8
Rigid_surface
10
0.0
 20
 0.0
 30
0.0
 70
     128
 71
-2
 72
1
 73
4
  0
SEQEND
  0
POLYLINE
 8
Rigid_surface
 66
     1
10
0.0
 20
 0.0
 30
0.0
70
    64
71
4
72
   1
  0
VERTEX
  8
Rigid_surface
10
0.9333912390713347
20
6.222299999999647
30
3.0002104545626276
 70
     192
  0
VERTEX
  8
Rigid_surface
10
4.930299999999923
20
6.222299999999647
30
0.0
 70
     192
  0
VERTEX
  8
Rigid_surface
10
0.9333912390713347
20
6.222299999999647
30
0.0
 70
     192
  0
VERTEX
  8
Rigid_surface
10
4.930299999999923
20
6.222299999999647
30
3.0002104545626276
 70
     192
  0
VERTEX
  8
Rigid_surface
10
0.0
 20
 0.0
 30
0.0
 70
     128
 71
-1
 72
2
 73
3
  0
VERTEX
  8
Rigid_surface
10
0.0
 20
 0.0
 30
0.0
 70
     128
 71
-2
 72
1
 73
4
  0
SEQEND
  0
POLYLINE
 8
Rigid_surface
 66
     1
10
0.0
 20
 0.0
 30
0.0
70
    64
71
4
72
   1
  0
VERTEX
  8
Rigid_surface
10
4.930299999999923
20
6.222299999999647
30
0.0
 70
     192
  0
VERTEX
  8
Rigid_surface
10
5.3999999999999275
20
0.0
30
3.6999999999999975
 70
     192
  0
VERTEX
  8
Rigid_surface
10
5.3999999999999275
20
0.0
30
0.0
 70
     192
  0
VERTEX
  8
Rigid_surface
10
4.930299999999923
20
6.222299999999647
30
3.0002104545626276
 70
     192
  0
VERTEX
  8
Rigid_surface
10
0.0
 20
 0.0
 30
0.0
 70
     128
 71
-1
 72
2
 73
3
  0
VERTEX
  8
Rigid_surface
10
0.0
 20
 0.0
 30
0.0
 70
     128
 71
-2
 72
1
 73
4
  0
SEQEND
  0
POINT
 8
Layer0
10
0.9333912390713347
20
6.222299999999647
30
2.9999999999999987
  0
POINT
 8
Layer0
10
4.560299999999972
20
6.222299999999647
30
0.0
  0
POINT
 8
Receiver_Array24
10
2.1252999999997884
20
5.202299999999766
30
1.25
  0
POINT
 8
Receiver_Array23
10
2.465299999999788
20
5.202299999999766
30
1.25
  0
POINT
 8
Receiver_Array22
10
2.8052999999997885
20
5.202299999999766
30
1.25
  0
POINT
 8
Receiver_Array21
10
3.1452999999997884
20
5.202299999999766
30
1.25
  0
POINT
 8
Receiver_Array20
10
1.7852999999997885
20
4.862299999999766
30
1.25
  0
POINT
 8
Receiver_Array15
10
1.7852999999997885
20
4.522299999999766
30
1.25
  0
POINT
 8
Receiver_Array10
10
1.7852999999997885
20
4.182299999999766
30
1.25
  0
POINT
 8
Receiver_Array5
10
1.7852999999997885
20
3.842299999999766
30
1.25
  0
POINT
 8
Receiver_Array19
10
2.1252999999997884
20
4.862299999999766
30
1.25
  0
POINT
 8
Receiver_Array14
10
2.1252999999997884
20
4.522299999999766
30
1.25
  0
POINT
 8
Receiver_Array9
10
2.1252999999997884
20
4.182299999999766
30
1.25
  0
POINT
 8
Receiver_Array4
10
2.1252999999997884
20
3.842299999999766
30
1.25
  0
POINT
 8
Receiver_Array18
10
2.465299999999788
20
4.862299999999766
30
1.25
  0
POINT
 8
Receiver_Array13
10
2.465299999999788
20
4.522299999999766
30
1.25
  0
POINT
 8
Receiver_Array8
10
2.465299999999788
20
4.182299999999766
30
1.25
  0
POINT
 8
Receiver_Array3
10
2.465299999999788
20
3.842299999999766
30
1.25
  0
POINT
 8
Receiver_Array17
10
2.8052999999997885
20
4.862299999999766
30
1.25
  0
POINT
 8
Receiver_Array12
10
2.8052999999997885
20
4.522299999999766
30
1.25
  0
POINT
 8
Receiver_Array7
10
2.8052999999997885
20
4.182299999999766
30
1.25
  0
POINT
 8
Receiver_Array2
10
2.8052999999997885
20
3.842299999999766
30
1.25
  0
POINT
 8
Receiver_Array16
10
3.1452999999997884
20
4.862299999999766
30
1.25
  0
POINT
 8
Receiver_Array11
10
3.1452999999997884
20
4.522299999999766
30
1.25
  0
POINT
 8
Receiver_Array6
10
3.1452999999997884
20
4.182299999999766
30
1.25
  0
POINT
 8
Receiver_Array1
10
3.1452999999997884
20
3.842299999999766
30
1.25
  0
POINT
 8
Receiver_Array25
10
1.7852999999997885
20
5.202299999999766
30
1.25
  0
POINT
 8
Layer0
10
4.270299999999972
20
2.202299999999647
30
0.0
  0
POINT
 8
Layer0
10
3.425299999999972
20
1.5942999999996468
30
0.0
  0
POLYLINE
 8
Rigid_surface
 66
     1
10
0.0
 20
 0.0
 30
0.0
70
    64
71
4
72
   1
  0
VERTEX
  8
Rigid_surface
10
0.9333912390713347
20
6.222299999999647
30
3.0002104545626276
 70
     192
  0
VERTEX
  8
Rigid_surface
10
0.0
20
0.0
30
0.0
 70
     192
  0
VERTEX
  8
Rigid_surface
10
0.0
20
0.0
30
3.6999999999999975
 70
     192
  0
VERTEX
  8
Rigid_surface
10
0.9333912390713347
20
6.222299999999647
30
0.0
 70
     192
  0
VERTEX
  8
Rigid_surface
10
0.0
 20
 0.0
 30
0.0
 70
     128
 71
-1
 72
2
 73
3
  0
VERTEX
  8
Rigid_surface
10
0.0
 20
 0.0
 30
0.0
 70
     128
 71
-2
 72
1
 73
4
  0
SEQEND
  0
POINT
 8
Source_Genelec
10
4.270299999999972
20
2.202299999999647
30
1.25
  0
POINT
 8
Source_Omni
10
3.425299999999972
20
1.5942999999996468
30
1.25
  0
POINT
 8
Receiver_Ambi
10
2.465299999999788
20
4.522299999999766
30
1.3
  0
POLYLINE
 8
Rigid_surface
 66
     1
10
0.0
 20
 0.0
 30
0.0
70
    64
71
4
72
   1
  0
VERTEX
  8
Rigid_surface
10
5.3999999999999275
20
0.0
30
3.6999999999999975
 70
     192
  0
VERTEX
  8
Rigid_surface
10
0.9333912390713347
20
6.222299999999647
30
3.0002104545626276
 70
     192
  0
VERTEX
  8
Rigid_surface
10
0.0
20
0.0
30
3.6999999999999975
 70
     192
  0
VERTEX
  8
Rigid_surface
10
4.930299999999923
20
6.222299999999647
30
3.0002104545626276
 70
     192
  0
VERTEX
  8
Rigid_surface
10
0.0
 20
 0.0
 30
0.0
 70
     128
 71
-1
 72
2
 73
3
  0
VERTEX
  8
Rigid_surface
10
0.0
 20
 0.0
 30
0.0
 70
     128
 71
-2
 72
1
 73
4
  0
SEQEND
 0
ENDSEC
 0
EOF
