 0
SECTION
 2
ENTITIES
  0
POLYLINE
 8
Rigid_surface
 66
     1
10
0.0
 20
 0.0
 30
0.0
70
    64
71
4
72
   1
  0
VERTEX
  8
Rigid_surface
10
0.9333912390713347
20
6.222299999999647
30
0.0
 70
     192
  0
VERTEX
  8
Rigid_surface
10
5.3999999999999275
20
0.0
30
0.0
 70
     192
  0
VERTEX
  8
Rigid_surface
10
0.0
20
0.0
30
0.0
 70
     192
  0
VERTEX
  8
Rigid_surface
10
4.930299999999923
20
6.222299999999647
30
0.0
 70
     192
  0
VERTEX
  8
Rigid_surface
10
0.0
 20
 0.0
 30
0.0
 70
     128
 71
-1
 72
2
 73
3
  0
VERTEX
  8
Rigid_surface
10
0.0
 20
 0.0
 30
0.0
 70
     128
 71
-2
 72
1
 73
4
  0
SEQEND
  0
POINT
 8
Layer0
10
0.9333912390713347
20
6.222299999999647
30
0.0
  0
POLYLINE
 8
Rigid_surface
 66
     1
10
0.0
 20
 0.0
 30
0.0
70
    64
71
12
72
   1
  0
VERTEX
  8
Rigid_surface
10
5.3999999999999275
20
0.0
30
0.0
 70
     192
  0
VERTEX
  8
Rigid_surface
10
4.738199694456434
20
-1.4438228390645235e-15
30
0.11035525722268516
 70
     192
  0
VERTEX
  8
Rigid_surface
10
0.0
20
0.0
30
0.0
 70
     192
  0
VERTEX
  8
Rigid_surface
10
5.3999999999999275
20
0.0
30
3.6999999999999975
 70
     192
  0
VERTEX
  8
Rigid_surface
10
4.813300821873735
20
-1.4438228390645235e-15
30
1.5401319908493427
 70
     192
  0
VERTEX
  8
Rigid_surface
10
4.738199694456434
20
-1.4438228390645235e-15
30
1.310355257222685
 70
     192
  0
VERTEX
  8
Rigid_surface
10
1.5881996944564347
20
-1.4438228390645235e-15
30
1.310355257222685
 70
     192
  0
VERTEX
  8
Rigid_surface
10
4.813300821873735
20
-1.4438228390645235e-15
30
3.4401319908493426
 70
     192
  0
VERTEX
  8
Rigid_surface
10
0.48330082187373524
20
-1.4438228390645235e-15
30
3.4401319908493426
 70
     192
  0
VERTEX
  8
Rigid_surface
10
0.48330082187373524
20
-1.4438228390645235e-15
30
1.5401319908493427
 70
     192
  0
VERTEX
  8
Rigid_surface
10
0.0
20
0.0
30
3.6999999999999975
 70
     192
  0
VERTEX
  8
Rigid_surface
10
1.5881996944564347
20
-1.4438228390645235e-15
30
0.11035525722268516
 70
     192
  0
VERTEX
  8
Rigid_surface
10
0.0
 20
 0.0
 30
0.0
 70
     128
 71
-1
 72
-2
 73
3
  0
VERTEX
  8
Rigid_surface
10
0.0
 20
 0.0
 30
0.0
 70
     128
 71
-2
 72
1
 73
-4
  0
VERTEX
  8
Rigid_surface
10
0.0
 20
 0.0
 30
0.0
 70
     128
 71
-2
 72
-4
 73
-5
  0
VERTEX
  8
Rigid_surface
10
0.0
 20
 0.0
 30
0.0
 70
     128
 71
-2
 72
-5
 73
6
  0
VERTEX
  8
Rigid_surface
10
0.0
 20
 0.0
 30
0.0
 70
     128
 71
-6
 72
-5
 73
7
  0
VERTEX
  8
Rigid_surface
10
0.0
 20
 0.0
 30
0.0
 70
     128
 71
-5
 72
-4
 73
8
  0
VERTEX
  8
Rigid_surface
10
0.0
 20
 0.0
 30
0.0
 70
     128
 71
-8
 72
-4
 73
9
  0
VERTEX
  8
Rigid_surface
10
0.0
 20
 0.0
 30
0.0
 70
     128
 71
-3
 72
-10
 73
11
  0
VERTEX
  8
Rigid_surface
10
0.0
 20
 0.0
 30
0.0
 70
     128
 71
-10
 72
-3
 73
-12
  0
VERTEX
  8
Rigid_surface
10
0.0
 20
 0.0
 30
0.0
 70
     128
 71
-12
 72
-3
 73
2
  0
VERTEX
  8
Rigid_surface
10
0.0
 20
 0.0
 30
0.0
 70
     128
 71
-10
 72
12
 73
-7
  0
VERTEX
  8
Rigid_surface
10
0.0
 20
 0.0
 30
0.0
 70
     128
 71
-10
 72
-7
 73
5
  0
VERTEX
  8
Rigid_surface
10
0.0
 20
 0.0
 30
0.0
 70
     128
 71
-11
 72
10
 73
-9
  0
VERTEX
  8
Rigid_surface
10
0.0
 20
 0.0
 30
0.0
 70
     128
 71
-11
 72
-9
 73
4
  0
SEQEND
  0
POLYLINE
 8
Rigid_surface
 66
     1
10
0.0
 20
 0.0
 30
0.0
70
    64
71
8
72
   1
  0
VERTEX
  8
Rigid_surface
10
0.9333912390713347
20
6.222299999999647
30
0.0
 70
     192
  0
VERTEX
  8
Rigid_surface
10
1.5693833467453477
20
6.222299999999646
30
0.30669567528050373
 70
     192
  0
VERTEX
  8
Rigid_surface
10
4.930299999999923
20
6.222299999999647
30
0.0
 70
     192
  0
VERTEX
  8
Rigid_surface
10
0.9333912390713347
20
6.222299999999647
30
3.0002104545626276
 70
     192
  0
VERTEX
  8
Rigid_surface
10
1.5693833467453477
20
6.222299999999646
30
1.7766956752805037
 70
     192
  0
VERTEX
  8
Rigid_surface
10
4.199383346745348
20
6.222299999999646
30
1.7766956752805037
 70
     192
  0
VERTEX
  8
Rigid_surface
10
4.199383346745348
20
6.222299999999646
30
0.30669567528050373
 70
     192
  0
VERTEX
  8
Rigid_surface
10
4.930299999999923
20
6.222299999999647
30
3.0002104545626276
 70
     192
  0
VERTEX
  8
Rigid_surface
10
0.0
 20
 0.0
 30
0.0
 70
     128
 71
-1
 72
-2
 73
3
  0
VERTEX
  8
Rigid_surface
10
0.0
 20
 0.0
 30
0.0
 70
     128
 71
-2
 72
1
 73
-4
  0
VERTEX
  8
Rigid_surface
10
0.0
 20
 0.0
 30
0.0
 70
     128
 71
-2
 72
-4
 73
5
  0
VERTEX
  8
Rigid_surface
10
0.0
 20
 0.0
 30
0.0
 70
     128
 71
-5
 72
-4
 73
6
  0
VERTEX
  8
Rigid_surface
10
0.0
 20
 0.0
 30
0.0
 70
     128
 71
-3
 72
-7
 73
8
  0
VERTEX
  8
Rigid_surface
10
0.0
 20
 0.0
 30
0.0
 70
     128
 71
-7
 72
-3
 73
2
  0
VERTEX
  8
Rigid_surface
10
0.0
 20
 0.0
 30
0.0
 70
     128
 71
-8
 72
7
 73
-6
  0
VERTEX
  8
Rigid_surface
10
0.0
 20
 0.0
 30
0.0
 70
     128
 71
-8
 72
-6
 73
4
  0
SEQEND
  0
POLYLINE
 8
Rigid_surface
 66
     1
10
0.0
 20
 0.0
 30
0.0
70
    64
71
12
72
   1
  0
VERTEX
  8
Rigid_surface
10
5.3999999999999275
20
0.0
30
0.0
 70
     192
  0
VERTEX
  8
Rigid_surface
10
5.352067997380905
20
0.6349740257532944
30
0.09396734491496933
 70
     192
  0
VERTEX
  8
Rigid_surface
10
5.3999999999999275
20
0.0
30
3.6999999999999975
 70
     192
  0
VERTEX
  8
Rigid_surface
10
4.930299999999923
20
6.222299999999647
30
0.0
 70
     192
  0
VERTEX
  8
Rigid_surface
10
5.352067997380905
20
0.6349740257532936
30
1.2939673449149693
 70
     192
  0
VERTEX
  8
Rigid_surface
10
4.990760469221177
20
5.4213564666051655
30
0.09396734491496933
 70
     192
  0
VERTEX
  8
Rigid_surface
10
4.990760469221177
20
5.4213564666051655
30
1.2939673449149693
 70
     192
  0
VERTEX
  8
Rigid_surface
10
4.971375195522215
20
5.678160785398101
30
1.7041603437185497
 70
     192
  0
VERTEX
  8
Rigid_surface
10
4.971375195522215
20
5.678160785398101
30
2.9041603437185497
 70
     192
  0
VERTEX
  8
Rigid_surface
10
5.347737204021932
20
0.6923457428440668
30
2.9041603437185497
 70
     192
  0
VERTEX
  8
Rigid_surface
10
4.930299999999923
20
6.222299999999647
30
3.0002104545626276
 70
     192
  0
VERTEX
  8
Rigid_surface
10
5.347737204021932
20
0.6923457428440689
30
1.7041603437185497
 70
     192
  0
VERTEX
  8
Rigid_surface
10
0.0
 20
 0.0
 30
0.0
 70
     128
 71
-1
 72
-2
 73
3
  0
VERTEX
  8
Rigid_surface
10
0.0
 20
 0.0
 30
0.0
 70
     128
 71
-2
 72
1
 73
-4
  0
VERTEX
  8
Rigid_surface
10
0.0
 20
 0.0
 30
0.0
 70
     128
 71
-3
 72
2
 73
-5
  0
VERTEX
  8
Rigid_surface
10
0.0
 20
 0.0
 30
0.0
 70
     128
 71
-2
 72
-4
 73
6
  0
VERTEX
  8
Rigid_surface
10
0.0
 20
 0.0
 30
0.0
 70
     128
 71
-6
 72
-4
 73
7
  0
VERTEX
  8
Rigid_surface
10
0.0
 20
 0.0
 30
0.0
 70
     128
 71
-7
 72
-4
 73
-8
  0
VERTEX
  8
Rigid_surface
10
0.0
 20
 0.0
 30
0.0
 70
     128
 71
-8
 72
-4
 73
9
  0
VERTEX
  8
Rigid_surface
10
0.0
 20
 0.0
 30
0.0
 70
     128
 71
-3
 72
-10
 73
11
  0
VERTEX
  8
Rigid_surface
10
0.0
 20
 0.0
 30
0.0
 70
     128
 71
-10
 72
-3
 73
-5
  0
VERTEX
  8
Rigid_surface
10
0.0
 20
 0.0
 30
0.0
 70
     128
 71
-11
 72
10
 73
-9
  0
VERTEX
  8
Rigid_surface
10
0.0
 20
 0.0
 30
0.0
 70
     128
 71
-11
 72
-9
 73
4
  0
VERTEX
  8
Rigid_surface
10
0.0
 20
 0.0
 30
0.0
 70
     128
 71
-5
 72
12
 73
-10
  0
VERTEX
  8
Rigid_surface
10
0.0
 20
 0.0
 30
0.0
 70
     128
 71
-12
 72
5
 73
-7
  0
VERTEX
  8
Rigid_surface
10
0.0
 20
 0.0
 30
0.0
 70
     128
 71
-12
 72
-7
 73
8
  0
SEQEND
  0
POINT
 8
Layer0
10
0.9333912390713347
20
6.222299999999647
30
2.9999999999999987
  0
POINT
 8
Layer0
10
4.560299999999972
20
6.222299999999647
30
0.0
  0
POINT
 8
Receiver_Array24
10
2.1252999999997884
20
5.202299999999766
30
1.25
  0
POINT
 8
Receiver_Array23
10
2.465299999999788
20
5.202299999999766
30
1.25
  0
POINT
 8
Receiver_Array22
10
2.8052999999997885
20
5.202299999999766
30
1.25
  0
POINT
 8
Receiver_Array21
10
3.1452999999997884
20
5.202299999999766
30
1.25
  0
POINT
 8
Receiver_Array20
10
1.7852999999997885
20
4.862299999999766
30
1.25
  0
POINT
 8
Receiver_Array15
10
1.7852999999997885
20
4.522299999999766
30
1.25
  0
POINT
 8
Receiver_Array10
10
1.7852999999997885
20
4.182299999999766
30
1.25
  0
POINT
 8
Receiver_Array5
10
1.7852999999997885
20
3.842299999999766
30
1.25
  0
POINT
 8
Receiver_Array19
10
2.1252999999997884
20
4.862299999999766
30
1.25
  0
POINT
 8
Receiver_Array14
10
2.1252999999997884
20
4.522299999999766
30
1.25
  0
POINT
 8
Receiver_Array9
10
2.1252999999997884
20
4.182299999999766
30
1.25
  0
POINT
 8
Receiver_Array4
10
2.1252999999997884
20
3.842299999999766
30
1.25
  0
POINT
 8
Receiver_Array18
10
2.465299999999788
20
4.862299999999766
30
1.25
  0
POINT
 8
Receiver_Array13
10
2.465299999999788
20
4.522299999999766
30
1.25
  0
POINT
 8
Receiver_Array8
10
2.465299999999788
20
4.182299999999766
30
1.25
  0
POINT
 8
Receiver_Array3
10
2.465299999999788
20
3.842299999999766
30
1.25
  0
POINT
 8
Receiver_Array17
10
2.8052999999997885
20
4.862299999999766
30
1.25
  0
POINT
 8
Receiver_Array12
10
2.8052999999997885
20
4.522299999999766
30
1.25
  0
POINT
 8
Receiver_Array7
10
2.8052999999997885
20
4.182299999999766
30
1.25
  0
POINT
 8
Receiver_Array2
10
2.8052999999997885
20
3.842299999999766
30
1.25
  0
POINT
 8
Receiver_Array16
10
3.1452999999997884
20
4.862299999999766
30
1.25
  0
POINT
 8
Receiver_Array11
10
3.1452999999997884
20
4.522299999999766
30
1.25
  0
POINT
 8
Receiver_Array6
10
3.1452999999997884
20
4.182299999999766
30
1.25
  0
POINT
 8
Receiver_Array1
10
3.1452999999997884
20
3.842299999999766
30
1.25
  0
POINT
 8
Receiver_Array25
10
1.7852999999997885
20
5.202299999999766
30
1.25
  0
POINT
 8
Layer0
10
4.270299999999972
20
2.202299999999647
30
0.0
  0
POINT
 8
Layer0
10
3.425299999999972
20
1.5942999999996468
30
0.0
  0
POLYLINE
 8
Rigid_surface
 66
     1
10
0.0
 20
 0.0
 30
0.0
70
    64
71
12
72
   1
  0
VERTEX
  8
Rigid_surface
10
0.0
20
0.0
30
3.6999999999999975
 70
     192
  0
VERTEX
  8
Rigid_surface
10
0.10076323282053902
20
0.6717216075469047
30
2.921706392468794
 70
     192
  0
VERTEX
  8
Rigid_surface
10
0.0
20
0.0
30
0.0
 70
     192
  0
VERTEX
  8
Rigid_surface
10
0.9333912390713347
20
6.222299999999647
30
3.0002104545626276
 70
     192
  0
VERTEX
  8
Rigid_surface
10
0.8425014336986493
20
5.616397981320834
30
2.921706392468794
 70
     192
  0
VERTEX
  8
Rigid_surface
10
0.8425014336986493
20
5.616397981320834
30
0.9477063924687936
 70
     192
  0
VERTEX
  8
Rigid_surface
10
0.9083769492353476
20
6.055546328943855
30
0.7098321232868212
 70
     192
  0
VERTEX
  8
Rigid_surface
10
0.9083769492353477
20
6.055546328943855
30
0.2198321232868212
 70
     192
  0
VERTEX
  8
Rigid_surface
10
0.10729969228698871
20
0.7152958452680109
30
0.2198321232868212
 70
     192
  0
VERTEX
  8
Rigid_surface
10
0.9333912390713347
20
6.222299999999647
30
0.0
 70
     192
  0
VERTEX
  8
Rigid_surface
10
0.100763232820539
20
0.6717216075469047
30
0.9477063924687936
 70
     192
  0
VERTEX
  8
Rigid_surface
10
0.10729969228698871
20
0.7152958452680109
30
0.7098321232868212
 70
     192
  0
VERTEX
  8
Rigid_surface
10
0.0
 20
 0.0
 30
0.0
 70
     128
 71
-1
 72
-2
 73
3
  0
VERTEX
  8
Rigid_surface
10
0.0
 20
 0.0
 30
0.0
 70
     128
 71
-2
 72
1
 73
-4
  0
VERTEX
  8
Rigid_surface
10
0.0
 20
 0.0
 30
0.0
 70
     128
 71
-2
 72
-4
 73
5
  0
VERTEX
  8
Rigid_surface
10
0.0
 20
 0.0
 30
0.0
 70
     128
 71
-5
 72
-4
 73
6
  0
VERTEX
  8
Rigid_surface
10
0.0
 20
 0.0
 30
0.0
 70
     128
 71
-6
 72
-4
 73
-7
  0
VERTEX
  8
Rigid_surface
10
0.0
 20
 0.0
 30
0.0
 70
     128
 71
-7
 72
-4
 73
8
  0
VERTEX
  8
Rigid_surface
10
0.0
 20
 0.0
 30
0.0
 70
     128
 71
-3
 72
-9
 73
10
  0
VERTEX
  8
Rigid_surface
10
0.0
 20
 0.0
 30
0.0
 70
     128
 71
-9
 72
-3
 73
-11
  0
VERTEX
  8
Rigid_surface
10
0.0
 20
 0.0
 30
0.0
 70
     128
 71
-11
 72
-3
 73
2
  0
VERTEX
  8
Rigid_surface
10
0.0
 20
 0.0
 30
0.0
 70
     128
 71
-9
 72
-11
 73
12
  0
VERTEX
  8
Rigid_surface
10
0.0
 20
 0.0
 30
0.0
 70
     128
 71
-10
 72
9
 73
-8
  0
VERTEX
  8
Rigid_surface
10
0.0
 20
 0.0
 30
0.0
 70
     128
 71
-10
 72
-8
 73
4
  0
VERTEX
  8
Rigid_surface
10
0.0
 20
 0.0
 30
0.0
 70
     128
 71
-6
 72
-12
 73
11
  0
VERTEX
  8
Rigid_surface
10
0.0
 20
 0.0
 30
0.0
 70
     128
 71
-12
 72
-6
 73
7
  0
SEQEND
  0
POINT
 8
Source_Genelec
10
4.270299999999972
20
2.202299999999647
30
1.25
  0
POINT
 8
Source_Omni
10
3.425299999999972
20
1.5942999999996468
30
1.25
  0
POINT
 8
Receiver_Ambi
10
2.465299999999788
20
4.522299999999766
30
1.3
  0
POLYLINE
 8
Rigid_surface
 66
     1
10
0.0
 20
 0.0
 30
0.0
70
    64
71
4
72
   1
  0
VERTEX
  8
Rigid_surface
10
5.3999999999999275
20
0.0
30
3.6999999999999975
 70
     192
  0
VERTEX
  8
Rigid_surface
10
0.9333912390713347
20
6.222299999999647
30
3.0002104545626276
 70
     192
  0
VERTEX
  8
Rigid_surface
10
0.0
20
0.0
30
3.6999999999999975
 70
     192
  0
VERTEX
  8
Rigid_surface
10
4.930299999999923
20
6.222299999999647
30
3.0002104545626276
 70
     192
  0
VERTEX
  8
Rigid_surface
10
0.0
 20
 0.0
 30
0.0
 70
     128
 71
-1
 72
2
 73
3
  0
VERTEX
  8
Rigid_surface
10
0.0
 20
 0.0
 30
0.0
 70
     128
 71
-2
 72
1
 73
4
  0
SEQEND
  0
POLYLINE
 8
Vieillelaine
 66
     1
10
0.0
 20
 0.0
 30
0.0
70
    64
71
4
72
   1
  0
VERTEX
  8
Vieillelaine
10
1.5693833467453477
20
6.222299999999646
30
1.7766956752805037
 70
     192
  0
VERTEX
  8
Vieillelaine
10
4.199383346745348
20
6.222299999999646
30
0.30669567528050373
 70
     192
  0
VERTEX
  8
Vieillelaine
10
1.5693833467453477
20
6.222299999999646
30
0.30669567528050373
 70
     192
  0
VERTEX
  8
Vieillelaine
10
4.199383346745348
20
6.222299999999646
30
1.7766956752805037
 70
     192
  0
VERTEX
  8
Vieillelaine
10
0.0
 20
 0.0
 30
0.0
 70
     128
 71
-1
 72
2
 73
3
  0
VERTEX
  8
Vieillelaine
10
0.0
 20
 0.0
 30
0.0
 70
     128
 71
-2
 72
1
 73
4
  0
SEQEND
  0
POLYLINE
 8
Parphonic60
 66
     1
10
0.0
 20
 0.0
 30
0.0
70
    64
71
4
72
   1
  0
VERTEX
  8
Parphonic60
10
0.8425014336986493
20
5.616397981320834
30
2.921706392468794
 70
     192
  0
VERTEX
  8
Parphonic60
10
0.100763232820539
20
0.6717216075469047
30
0.9477063924687936
 70
     192
  0
VERTEX
  8
Parphonic60
10
0.10076323282053902
20
0.6717216075469047
30
2.921706392468794
 70
     192
  0
VERTEX
  8
Parphonic60
10
0.8425014336986493
20
5.616397981320834
30
0.9477063924687936
 70
     192
  0
VERTEX
  8
Parphonic60
10
0.0
 20
 0.0
 30
0.0
 70
     128
 71
-1
 72
2
 73
3
  0
VERTEX
  8
Parphonic60
10
0.0
 20
 0.0
 30
0.0
 70
     128
 71
-2
 72
1
 73
4
  0
SEQEND
  0
POLYLINE
 8
Ultimate
 66
     1
10
0.0
 20
 0.0
 30
0.0
70
    64
71
4
72
   1
  0
VERTEX
  8
Ultimate
10
0.9083769492353476
20
6.055546328943855
30
0.7098321232868212
 70
     192
  0
VERTEX
  8
Ultimate
10
0.10729969228698871
20
0.7152958452680109
30
0.2198321232868212
 70
     192
  0
VERTEX
  8
Ultimate
10
0.10729969228698871
20
0.7152958452680109
30
0.7098321232868212
 70
     192
  0
VERTEX
  8
Ultimate
10
0.9083769492353477
20
6.055546328943855
30
0.2198321232868212
 70
     192
  0
VERTEX
  8
Ultimate
10
0.0
 20
 0.0
 30
0.0
 70
     128
 71
-1
 72
2
 73
3
  0
VERTEX
  8
Ultimate
10
0.0
 20
 0.0
 30
0.0
 70
     128
 71
-2
 72
1
 73
4
  0
SEQEND
  0
POLYLINE
 8
Parphonic60
 66
     1
10
0.0
 20
 0.0
 30
0.0
70
    64
71
4
72
   1
  0
VERTEX
  8
Parphonic60
10
4.813300821873735
20
-1.4438228390645235e-15
30
3.4401319908493426
 70
     192
  0
VERTEX
  8
Parphonic60
10
0.48330082187373524
20
-1.4438228390645235e-15
30
1.5401319908493427
 70
     192
  0
VERTEX
  8
Parphonic60
10
4.813300821873735
20
-1.4438228390645235e-15
30
1.5401319908493427
 70
     192
  0
VERTEX
  8
Parphonic60
10
0.48330082187373524
20
-1.4438228390645235e-15
30
3.4401319908493426
 70
     192
  0
VERTEX
  8
Parphonic60
10
0.0
 20
 0.0
 30
0.0
 70
     128
 71
-1
 72
2
 73
3
  0
VERTEX
  8
Parphonic60
10
0.0
 20
 0.0
 30
0.0
 70
     128
 71
-2
 72
1
 73
4
  0
SEQEND
  0
POLYLINE
 8
Ultimate
 66
     1
10
0.0
 20
 0.0
 30
0.0
70
    64
71
4
72
   1
  0
VERTEX
  8
Ultimate
10
4.738199694456434
20
-1.4438228390645235e-15
30
1.310355257222685
 70
     192
  0
VERTEX
  8
Ultimate
10
1.5881996944564347
20
-1.4438228390645235e-15
30
0.11035525722268516
 70
     192
  0
VERTEX
  8
Ultimate
10
4.738199694456434
20
-1.4438228390645235e-15
30
0.11035525722268516
 70
     192
  0
VERTEX
  8
Ultimate
10
1.5881996944564347
20
-1.4438228390645235e-15
30
1.310355257222685
 70
     192
  0
VERTEX
  8
Ultimate
10
0.0
 20
 0.0
 30
0.0
 70
     128
 71
-1
 72
2
 73
3
  0
VERTEX
  8
Ultimate
10
0.0
 20
 0.0
 30
0.0
 70
     128
 71
-2
 72
1
 73
4
  0
SEQEND
  0
POLYLINE
 8
Parphonic100
 66
     1
10
0.0
 20
 0.0
 30
0.0
70
    64
71
4
72
   1
  0
VERTEX
  8
Parphonic100
10
5.347737204021932
20
0.6923457428440689
30
1.7041603437185497
 70
     192
  0
VERTEX
  8
Parphonic100
10
4.971375195522215
20
5.678160785398101
30
2.9041603437185497
 70
     192
  0
VERTEX
  8
Parphonic100
10
5.347737204021932
20
0.6923457428440668
30
2.9041603437185497
 70
     192
  0
VERTEX
  8
Parphonic100
10
4.971375195522215
20
5.678160785398101
30
1.7041603437185497
 70
     192
  0
VERTEX
  8
Parphonic100
10
0.0
 20
 0.0
 30
0.0
 70
     128
 71
-1
 72
2
 73
3
  0
VERTEX
  8
Parphonic100
10
0.0
 20
 0.0
 30
0.0
 70
     128
 71
-2
 72
1
 73
4
  0
SEQEND
  0
POLYLINE
 8
Ultimate
 66
     1
10
0.0
 20
 0.0
 30
0.0
70
    64
71
4
72
   1
  0
VERTEX
  8
Ultimate
10
5.352067997380905
20
0.6349740257532944
30
0.09396734491496933
 70
     192
  0
VERTEX
  8
Ultimate
10
4.990760469221177
20
5.4213564666051655
30
1.2939673449149693
 70
     192
  0
VERTEX
  8
Ultimate
10
5.352067997380905
20
0.6349740257532936
30
1.2939673449149693
 70
     192
  0
VERTEX
  8
Ultimate
10
4.990760469221177
20
5.4213564666051655
30
0.09396734491496933
 70
     192
  0
VERTEX
  8
Ultimate
10
0.0
 20
 0.0
 30
0.0
 70
     128
 71
-1
 72
2
 73
3
  0
VERTEX
  8
Ultimate
10
0.0
 20
 0.0
 30
0.0
 70
     128
 71
-2
 72
1
 73
4
  0
SEQEND
 0
ENDSEC
 0
EOF
