cl__1 = 1e+022;
Point(1) = {4.270300000007866, 2.202300000007912, 1.250000000004865, cl__1};
Point(2) = {3.425300000003437, 1.594300000003692, 1.250000000007, cl__1};
Point(3) = {2.465300000005606, 4.522300000002023, 1.300000000005535, cl__1};
Point(4) = {3.145299999999795, 3.842300000006681, 1.25000000000069, cl__1};
Point(5) = {2.805300000001771, 3.842299999999905, 1.250000000001422, cl__1};
Point(6) = {2.465300000006036, 3.842300000002535, 1.250000000008949, cl__1};
Point(7) = {2.125300000001011, 3.842300000002353, 1.250000000006606, cl__1};
Point(8) = {1.785300000008314, 3.84229999999995, 1.25000000000851, cl__1};
Point(9) = {3.14530000000084, 4.182300000002347, 1.250000000004954, cl__1};
Point(10) = {2.80530000000023, 4.182300000002687, 1.25000000000454, cl__1};
Point(11) = {2.465300000007567, 4.182300000004916, 1.250000000008487, cl__1};
Point(12) = {2.125300000000266, 4.18230000000477, 1.250000000006301, cl__1};
Point(13) = {1.785300000000857, 4.182300000002976, 1.250000000003073, cl__1};
Point(14) = {3.145300000004719, 4.522300000002921, 1.250000000000011, cl__1};
Point(15) = {2.805300000004223, 4.522300000001262, 1.250000000006544, cl__1};
Point(16) = {2.46530000000802, 4.522300000008298, 1.250000000008354, cl__1};
Point(17) = {2.125300000006569, 4.522300000005313, 1.250000000000397, cl__1};
Point(18) = {1.785300000001855, 4.522300000000039, 1.250000000004203, cl__1};
Point(19) = {3.145300000004636, 4.862300000002483, 1.250000000007665, cl__1};
Point(20) = {2.805300000003628, 4.862300000008259, 1.250000000005461, cl__1};
Point(21) = {2.465300000002769, 4.862300000002906, 1.250000000004604, cl__1};
Point(22) = {2.125300000006844, 4.862300000006781, 1.250000000007011, cl__1};
Point(23) = {1.785300000003563, 4.862300000006565, 1.250000000008993, cl__1};
Point(24) = {3.145300000004502, 5.202300000000783, 1.250000000007776, cl__1};
Point(25) = {2.805300000004251, 5.20230000000333, 1.250000000008306, cl__1};
Point(26) = {2.465300000008208, 5.202300000007283, 1.250000000005179, cl__1};
Point(27) = {2.125300000000625, 5.202300000003282, 1.250000000002864, cl__1};
Point(28) = {1.785300000008075, 5.202300000007045, 1.250000000001885, cl__1};
Point(53) = {4.953767268003283, 5.9114199040041, 2.557567485001908, cl__1};
Point(54) = {5.330129276001955, 0.9256048610023351, 2.557567485007001, cl__1};
Point(55) = {5.330129276008383, 0.9256048610040943, 1.357567485005805, cl__1};
Point(56) = {4.953767268001891, 5.911419904008993, 1.357567485001401, cl__1};
Point(57) = {0.8633721560025021, 5.755529240005067, 2.561268289005559, cl__1};
Point(58) = {0.2183566170007544, 1.455638666002566, 2.561268289001647, cl__1};
Point(59) = {0.2183566170036758, 1.455638666004502, 1.331268289005789, cl__1};
Point(60) = {0.8633721560016882, 5.75552924000555, 1.331268289000386, cl__1};
Point(61) = {0.9157986880058262, 6.105022134005161, 1.200000000008662, cl__1};
Point(62) = {0.7303641380009355, 4.868853041004741, 1.200000000005415, cl__1};
Point(63) = {0.7303641380071272, 4.868853041005742, 7.290314869928984e-013, cl__1};
Point(64) = {0.9157986880057154, 6.105022134007574, 4.944459676811192e-012, cl__1};
Point(68) = {0.6978101930004733, 4.651837496002395, 5.385461710530905e-012, cl__1};
Point(73) = {0.009510252008506378, 0.06339854100728315, 3.030000000000983, cl__1};
Point(74) = {0.09851883600397673, 0.6567597060018318, 3.030000000005757, cl__1};
Point(75) = {0.09851883600106723, 0.6567597060002294, 8.51271738214581e-012, cl__1};
Point(76) = {0.009510252007752816, 0.06339854100702902, 6.691378982883402e-012, cl__1};
Point(77) = {5.295810051002207, 4.846612350579632e-012, 2.637426981003018, cl__1};
Point(78) = {0.2958100510088421, 3.013973274203155e-012, 2.63742698100886, cl__1};
Point(79) = {0.295810051002092, 5.610648373999032e-012, 1.377426981000295, cl__1};
Point(80) = {5.295810051003685, 7.200460705558593e-012, 1.377426981001518, cl__1};
Point(81) = {2.179971450000232, 1.299577868117776e-012, 1.220000000004855, cl__1};
Point(82) = {1.529971450006792, 4.869764957349917e-012, 1.220000000002943, cl__1};
Point(89) = {0.7799714500088399, 3.796200631513493e-012, 1.200000000000683, cl__1};
Point(90) = {0.159971450005727, 1.604420523926526e-012, 1.200000000003819, cl__1};
Point(95) = {0.1599714500017855, 2.999640708107264e-012, 6.869984806539884e-012, cl__1};
Point(97) = {4.951376272006308, 5.943094358004145, 1.200000000003354, cl__1};
Point(98) = {4.996539713004345, 5.34479655300159, 1.200000000004247, cl__1};
Point(100) = {4.951376272002846, 5.943094358003383, 4.997931173399708e-012, cl__1};
Point(101) = {4.999294103004077, 5.308308075002711, 1.200000000003002, cl__1};
Point(102) = {5.187616627002051, 2.81352578200463, 1.20000000000376, cl__1};
Point(105) = {5.190098374008222, 2.780649110004881, 1.200000000005447, cl__1};
Point(106) = {5.331688853001728, 0.9049445380076213, 1.20000000000421, cl__1};
Point(107) = {5.331688853009006, 0.9049445380037328, 2.032192496634647e-012, cl__1};
Point(109) = {5.329971450004257, 4.933710252239275e-013, 1.200000000004689, cl__1};
Point(112) = {5.329971450006368, 3.993549041603064e-012, 6.879080473485354e-012, cl__1};
Point(113) = {0.2156803630069276, 1.437797853007511, 1.20000000000625, cl__1};
Point(116) = {0.2156803630006946, 1.437797853003563, 6.828089613336511e-012, cl__1};
Point(118) = {0.6978101930083325, 4.651837496006647, 1.200000000000231, cl__1};
Point(121) = {1.156939201003857, 6.222300000005866, 1.160000000000811, cl__1};
Point(122) = {4.456939201000193, 6.222300000003708, 1.160000000001404, cl__1};
Point(123) = {4.456939201003455, 6.222300000004123, 7.651109658765924e-012, cl__1};
Point(124) = {1.156939201006619, 6.222300000004171, 2.620378959108312e-012, cl__1};
Point(168) = {4.996539713003911, 5.344796553006368, 0.6000000000025941, cl__1};
Point(169) = {4.999294103002943, 5.3083080750038, 0.600000000000194, cl__1};
Point(170) = {5.187616627002984, 2.813525782000704, 0.6000000000005479, cl__1};
Point(171) = {5.190098374003844, 2.780649110001945, 0.6000000000051016, cl__1};
Point(172) = {5.190098374005237, 2.780649110004499, 8.297453264436376e-012, cl__1};
Point(173) = {4.996539713007465, 5.344796553008104, 6.346019265226651e-012, cl__1};
Point(174) = {4.930300000006682, 6.22230000000326, 3.430995822339357e-012, cl__1};
Point(175) = {4.930300000001441, 6.222300000003251, 3.000210455004472, cl__1};
Point(176) = {5.400000000001508, 8.958680688744868e-012, 3.700000000009021, cl__1};
Point(177) = {5.400000000005934, 1.466331762118042e-013, 2.966014303036136e-012, cl__1};
Point(178) = {5.395214262463407, 0.06339854100702905, 4.831065473610732e-012, cl__1};
Point(179) = {5.395214262459969, 0.06339854100728315, 3.030000000000983, cl__1};
Point(180) = {5.350423471402312, 0.6567597060018318, 3.030000000005757, cl__1};
Point(181) = {5.350423471405964, 0.6567597060002295, 5.763905090611231e-012, cl__1};
Point(182) = {2.179971450001906, 2.224855260115946e-012, 1.200000000004942, cl__1};
Point(183) = {1.52997145000834, 2.262891685524271e-013, 0.6000000000019453, cl__1};
Point(184) = {1.115569823002194, 7.955125435761449e-012, 0.6000000000044106, cl__1};
Point(185) = {1.115569823005085, 6.916841272622603e-012, 1.377426981000188, cl__1};
Point(186) = {0.8591585910081607, 5.292851283449765e-012, 1.377426981006416, cl__1};
Point(187) = {0.8591585910030975, 7.413519813099429e-012, 0.6000000000009762, cl__1};
Point(188) = {0.7799714500039339, 1.860477329767025e-013, 0.6000000000060257, cl__1};
Point(189) = {0.1599714500058612, 8.616077233798869e-012, 0.6000000000013905, cl__1};
Point(190) = {5.811579925612576e-012, 6.446898480440036e-012, 8.613320971088119e-012, cl__1};
Point(191) = {5.150352501304083e-012, 1.310602918960768e-012, 3.700000000003137, cl__1};
Point(192) = {2.179971450002451, 6.963422112434248e-012, 0.6000000000004473, cl__1};
Point(193) = {2.179971450000033, 8.229373575480895e-012, 6.350704911834924e-012, cl__1};
Point(194) = {0.6978101930077305, 4.651837496003017, 0.6000000000052653, cl__1};
Point(195) = {0.4011149130013776, 2.67396694700273, 1.200000000001974, cl__1};
Point(196) = {0.9333912390018533, 6.222300000007161, 3.000210455007635, cl__1};
Point(197) = {0.933391239002939, 6.222300000000462, 5.946636798439238e-012, cl__1};
Point(198) = {0.4011149130037411, 2.673966947001299, 0.6000000000035933, cl__1};
Point(199) = {0.4011149130047634, 2.673966947000503, 5.159172541978478e-012, cl__1};
Line(25) = {53, 54};
Line(26) = {54, 55};
Line(27) = {55, 56};
Line(28) = {56, 53};
Line(29) = {57, 58};
Line(30) = {58, 59};
Line(31) = {59, 60};
Line(32) = {60, 57};
Line(33) = {61, 62};
Line(34) = {62, 63};
Line(35) = {63, 64};
Line(36) = {64, 61};
Line(45) = {73, 74};
Line(46) = {74, 75};
Line(47) = {75, 76};
Line(48) = {76, 73};
Line(49) = {77, 78};
Line(50) = {78, 79};
Line(52) = {80, 77};
Line(53) = {81, 82};
Line(61) = {89, 90};
Line(69) = {97, 98};
Line(72) = {100, 97};
Line(73) = {101, 102};
Line(77) = {105, 106};
Line(78) = {106, 107};
Line(84) = {112, 109};
Line(88) = {116, 113};
Line(93) = {121, 122};
Line(94) = {122, 123};
Line(95) = {123, 124};
Line(96) = {124, 121};
Line(176) = {168, 169};
Line(177) = {169, 170};
Line(178) = {170, 171};
Line(179) = {171, 172};
Line(180) = {172, 173};
Line(181) = {173, 168};
Line(182) = {98, 168};
Line(183) = {173, 100};
Line(184) = {102, 170};
Line(185) = {169, 101};
Line(186) = {172, 107};
Line(187) = {171, 105};
Line(188) = {100, 174};
Line(189) = {174, 175};
Line(190) = {175, 176};
Line(191) = {177, 176};
Line(192) = {177, 178};
Line(193) = {179, 178};
Line(194) = {180, 179};
Line(195) = {181, 180};
Line(196) = {181, 107};
Line(197) = {112, 177};
Line(198) = {109, 182};
Line(199) = {182, 81};
Line(200) = {82, 183};
Line(201) = {183, 184};
Line(202) = {184, 185};
Line(203) = {185, 80};
Line(204) = {79, 186};
Line(205) = {186, 187};
Line(206) = {187, 188};
Line(207) = {188, 89};
Line(208) = {90, 189};
Line(209) = {189, 95};
Line(210) = {95, 190};
Line(211) = {190, 191};
Line(212) = {176, 191};
Line(213) = {183, 192};
Line(214) = {192, 182};
Line(215) = {184, 187};
Line(216) = {188, 189};
Line(217) = {95, 193};
Line(218) = {193, 192};
Line(219) = {186, 185};
Line(220) = {193, 112};
Line(221) = {68, 194};
Line(222) = {118, 194};
Line(223) = {195, 118};
Line(224) = {113, 195};
Line(225) = {75, 116};
Line(226) = {76, 190};
Line(227) = {191, 196};
Line(228) = {196, 197};
Line(229) = {64, 197};
Line(230) = {63, 68};
Line(231) = {194, 198};
Line(232) = {198, 199};
Line(233) = {199, 68};
Line(234) = {195, 198};
Line(235) = {199, 116};
Line(236) = {197, 124};
Line(237) = {174, 123};
Line(238) = {196, 175};
Line(239) = {181, 178};
Line Loop(7) = {25, 26, 27, 28};
Plane Surface(7) = {7};
Line Loop(8) = {29, 30, 31, 32};
Plane Surface(8) = {8};
Line Loop(9) = {33, 34, 35, 36};
Plane Surface(9) = {9};
Line Loop(12) = {45, 46, 47, 48};
Plane Surface(12) = {12};
Line Loop(24) = {93, 94, 95, 96};
Plane Surface(24) = {24};
Line Loop(31) = {176, 177, 178, 179, 180, 181};
Plane Surface(31) = {31};
Line Loop(32) = {69, 182, -181, 183, 72};
Plane Surface(32) = {32};
Line Loop(33) = {73, 184, -177, 185};
Plane Surface(33) = {33};
Line Loop(34) = {77, 78, -186, -179, 187};
Plane Surface(34) = {34};
Line Loop(35) = {72, 69, 182, 176, 185, 73, 184, 178, 187, 77, 78, -196, 195, 194, 193, -192, 191, -190, -189, -188, 25, 26, 27, 28};
Plane Surface(35) = {35};
Line Loop(36) = {197, 191, 212, -211, -210, -209, -208, -61, -207, -206, -205, -204, -50, -49, -52, -203, -202, -201, -200, -53, -199, -198, -84};
Plane Surface(36) = {36};
Line Loop(37) = {53, 200, 213, 214, 199};
Plane Surface(37) = {37};
Line Loop(38) = {213, -218, -217, -209, -216, -206, -215, -201};
Plane Surface(38) = {38};
Line Loop(39) = {49, 50, 204, 219, 203, 52};
Plane Surface(39) = {39};
Line Loop(40) = {219, -202, 215, -205};
Plane Surface(40) = {40};
Line Loop(41) = {61, 208, -216, 207};
Plane Surface(41) = {41};
Line Loop(42) = {198, -214, -218, 220, 84};
Plane Surface(42) = {42};
Line Loop(43) = {221, -222, -223, -224, -88, -225, -46, -45, -48, 226, 211, 227, 228, -229, 36, 33, 34, 230, 32, 29, 30, 31};
Plane Surface(43) = {43};
Line Loop(44) = {231, 232, 233, 221};
Plane Surface(44) = {44};
Line Loop(45) = {224, 234, 232, 235, 88};
Plane Surface(45) = {45};
Line Loop(46) = {223, 222, 231, -234};
Plane Surface(46) = {46};
Line Loop(47) = {228, 236, 96, 93, 94, -237, 189, -238};
Plane Surface(47) = {47};
Line Loop(48) = {212, 227, 238, 190};
Plane Surface(48) = {48};
Line Loop(49) = {197, 192, -239, 196, -186, 180, 183, 188, 237, 95, -236, -229, -35, 230, -233, 235, -225, 47, 226, -210, 217, 220};
Plane Surface(49) = {49};
Line Loop(50) = {193, -239, 195, 194};
Plane Surface(50) = {50};
Surface Loop(1) = {31, 32, 33, 34, 35, 36, 37, 38, 39, 40, 41, 42, 43, 44, 45, 46, 9, 12, 8, 7, 47, 24, 48, 49, 50};
Volume(1) = {1};
Point {1} In Volume {1};
Point {2} In Volume {1};
Point {3} In Volume {1};
Point {4} In Volume {1};
Point {5} In Volume {1};
Point {6} In Volume {1};
Point {7} In Volume {1};
Point {8} In Volume {1};
Point {9} In Volume {1};
Point {10} In Volume {1};
Point {11} In Volume {1};
Point {12} In Volume {1};
Point {13} In Volume {1};
Point {14} In Volume {1};
Point {15} In Volume {1};
Point {16} In Volume {1};
Point {17} In Volume {1};
Point {18} In Volume {1};
Point {19} In Volume {1};
Point {20} In Volume {1};
Point {21} In Volume {1};
Point {22} In Volume {1};
Point {23} In Volume {1};
Point {24} In Volume {1};
Point {25} In Volume {1};
Point {26} In Volume {1};
Point {27} In Volume {1};
Point {28} In Volume {1};
Physical Point("Source_Genelec") = {1};
Physical Point("Source_Omni") = {2};
Physical Point("Receiver_Ambi") = {3};
Physical Point("Receiver_Array1") = {4};
Physical Point("Receiver_Array2") = {5};
Physical Point("Receiver_Array3") = {6};
Physical Point("Receiver_Array4") = {7};
Physical Point("Receiver_Array5") = {8};
Physical Point("Receiver_Array6") = {9};
Physical Point("Receiver_Array7") = {10};
Physical Point("Receiver_Array8") = {11};
Physical Point("Receiver_Array9") = {12};
Physical Point("Receiver_Array10") = {13};
Physical Point("Receiver_Array11") = {14};
Physical Point("Receiver_Array12") = {15};
Physical Point("Receiver_Array13") = {16};
Physical Point("Receiver_Array14") = {17};
Physical Point("Receiver_Array15") = {18};
Physical Point("Receiver_Array16") = {19};
Physical Point("Receiver_Array17") = {20};
Physical Point("Receiver_Array18") = {21};
Physical Point("Receiver_Array19") = {22};
Physical Point("Receiver_Array20") = {23};
Physical Point("Receiver_Array21") = {24};
Physical Point("Receiver_Array22") = {25};
Physical Point("Receiver_Array23") = {26};
Physical Point("Receiver_Array24") = {27};
Physical Point("Receiver_Array25") = {28};
Physical Surface("Parphonic100") = {31};
Physical Surface("Parphonic60") = {7, 8, 12, 37, 38, 39, 40, 41, 44, 50};
Physical Surface("Ultimate") = {9, 32, 33, 34, 42, 45, 46};
Physical Surface("Vieillelaine") = {24};
Physical Surface("Rigid_Surface") = {35, 36, 43, 47, 48, 49};
Physical Volume(29) = {1};
//+
SetFactory("OpenCASCADE");
//+
SetFactory("OpenCASCADE");
//+
BooleanUnion{ Surface{48}; Surface{35}; Surface{36}; Surface{43}; Surface{49}; Surface{47}; Delete; }{ Surface{8}; Surface{46}; Surface{9}; Surface{44}; Surface{45}; Surface{12}; Surface{24}; Surface{50}; Surface{7}; Surface{33}; Surface{34}; Surface{31}; Surface{32}; Surface{39}; Surface{41}; Surface{40}; Surface{37}; Surface{38}; Surface{42}; Delete; }
//+
BooleanUnion{ Surface{35}; Delete; }{ Surface{7}; Delete; }
//+
SetFactory("Built-in");
//+
SetFactory("Built-in");
//+
SetFactory("Built-in");
//+
SetFactory("Built-in");
//+
SetFactory("OpenCASCADE");
BooleanUnion{ Surface{35}; Delete; }{ Surface{7}; Delete; }
//+
SetFactory("Built-in");
//+
SetFactory("Built-in");
//+
SetFactory("Built-in");
//+
SetFactory("Built-in");
//+
SetFactory("Built-in");
//+
SetFactory("Built-in");
//+
SetFactory("Built-in");
//+
SetFactory("Built-in");
//+
SetFactory("OpenCASCADE");
BooleanUnion{ Surface{35}; Delete; }{ Surface{7}; Delete; }
//+
SetFactory("Built-in");
//+
SetFactory("Built-in");
//+
SetFactory("OpenCASCADE");
BooleanUnion{ Surface{36}; Delete; }{ Surface{39}; Delete; }
//+
SetFactory("OpenCASCADE");
//+
SetFactory("OpenCASCADE");
//+
SetFactory("OpenCASCADE");
